<svg xmlns="http://www.w3.org/2000/svg" viewBox="0 0 64 64">
  <defs>
    <radialGradient id="glow" cx="50%" cy="50%" r="50%">
      <stop offset="0%" stop-color="#00e676" stop-opacity="0.3"/>
      <stop offset="100%" stop-color="#00e676" stop-opacity="0"/>
    </radialGradient>
  </defs>
  <circle cx="32" cy="32" r="30" fill="#0d1117"/>
  <circle cx="32" cy="32" r="30" fill="none" stroke="#00e676" stroke-width="2" opacity="0.4"/>
  <circle cx="32" cy="32" r="16" fill="url(#glow)"/>
  <line x1="32" y1="6" x2="32" y2="22" stroke="#00e676" stroke-width="2.5" stroke-linecap="round" opacity="0.7"/>
  <line x1="32" y1="42" x2="32" y2="58" stroke="#00e676" stroke-width="2.5" stroke-linecap="round" opacity="0.7"/>
  <line x1="6" y1="32" x2="22" y2="32" stroke="#00e676" stroke-width="2.5" stroke-linecap="round" opacity="0.7"/>
  <line x1="42" y1="32" x2="58" y2="32" stroke="#00e676" stroke-width="2.5" stroke-linecap="round" opacity="0.7"/>
  <circle cx="32" cy="32" r="14" fill="none" stroke="#00e676" stroke-width="2.5" opacity="0.9"/>
  <line x1="12" y1="12" x2="18" y2="12" stroke="#00e676" stroke-width="2" stroke-linecap="round" opacity="0.5"/>
  <line x1="12" y1="12" x2="12" y2="18" stroke="#00e676" stroke-width="2" stroke-linecap="round" opacity="0.5"/>
  <line x1="52" y1="12" x2="46" y2="12" stroke="#00e676" stroke-width="2" stroke-linecap="round" opacity="0.5"/>
  <line x1="52" y1="12" x2="52" y2="18" stroke="#00e676" stroke-width="2" stroke-linecap="round" opacity="0.5"/>
  <line x1="12" y1="52" x2="18" y2="52" stroke="#00e676" stroke-width="2" stroke-linecap="round" opacity="0.5"/>
  <line x1="12" y1="52" x2="12" y2="46" stroke="#00e676" stroke-width="2" stroke-linecap="round" opacity="0.5"/>
  <line x1="52" y1="52" x2="46" y2="52" stroke="#00e676" stroke-width="2" stroke-linecap="round" opacity="0.5"/>
  <line x1="52" y1="52" x2="52" y2="46" stroke="#00e676" stroke-width="2" stroke-linecap="round" opacity="0.5"/>
  <circle cx="32" cy="32" r="5" fill="#00e676"/>
  <circle cx="32" cy="32" r="3" fill="#fff" opacity="0.6"/>
</svg>